Coordinates
version=1
nRows=14
nColumns=40
inDegrees=yes

Units are S.I. units (second, meters, Newtons, ...)
Angles are in degrees.

endheader
time	pelvis_tilt	pelvis_list	pelvis_rotation	pelvis_tx	pelvis_ty	pelvis_tz	hip_flexion_r	hip_adduction_r	hip_rotation_r	knee_angle_r	knee_angle_r_beta	ankle_angle_r	subtalar_angle_r	mtp_angle_r	hip_flexion_l	hip_adduction_l	hip_rotation_l	knee_angle_l	knee_angle_l_beta	ankle_angle_l	subtalar_angle_l	mtp_angle_l	lumbar_extension	lumbar_bending	lumbar_rotation	arm_flex_r	arm_add_r	arm_rot_r	elbow_flex_r	pro_sup_r	wrist_flex_r	wrist_dev_r	arm_flex_l	arm_add_l	arm_rot_l	elbow_flex_l	pro_sup_l	wrist_flex_l	wrist_dev_l
     32.93414286	     -4.94020074	     -5.36349058	     -7.19541035	      0.98609934	      0.93426791	      0.45142998	     37.91964996	     -2.82551526	     -6.08859005	     51.09455775	     51.09455775	     -1.24064004	    -15.15119954	      2.94415290	     10.38412656	     -6.07539837	     -8.66937920	     19.37889087	     19.37889087	     14.53424671	    -13.71548843	      1.56768703	    -14.03328151	      6.41864236	      3.36517650	      2.92997118	    -14.61852024	     -7.36644486	     53.68296004	     46.24014392	      0.00000000	      0.00000000	     13.27877587	    -15.82315421	     -5.02195052	     74.49738743	     47.15653383	      0.00000000	      0.00000000
     32.94578571	     -5.07786365	     -5.46068001	     -7.38420065	      0.98592755	      0.93411356	      0.45202728	     37.89388110	     -2.45374782	     -6.39837159	     46.86356576	     46.86356576	     -1.77701750	    -13.59638196	      0.81144699	      9.62389775	     -6.15881518	     -8.95514982	     18.82166213	     18.82166213	     14.67084624	    -13.39953624	      0.93971409	    -14.01071761	      6.51318137	      2.68180578	      3.71207094	    -14.05077909	     -8.13438884	     46.76297680	     46.47756824	      0.00000000	      0.00000000	     13.09368288	    -16.55947858	     -5.69695294	     77.85446126	     47.30248796	      0.00000000	      0.00000000
     32.95742857	     -5.09563173	     -5.54883619	     -7.56454918	      0.98600551	      0.93394965	      0.45262925	     37.59695656	     -2.15115799	     -6.85473692	     42.53630803	     42.53630803	     -1.60555051	    -11.18258807	      0.47088661	      8.70919268	     -6.19613028	     -9.22303363	     18.26546951	     18.26546951	     14.98512570	    -13.10897818	      0.73118898	    -14.18044556	      6.64944718	      3.16720653	      2.22576589	    -14.41128655	     -8.17559661	     44.27320409	     46.54536967	      0.00000000	      0.00000000	     14.12397816	    -16.35697247	     -6.24388023	     80.00482641	     47.39499189	      0.00000000	      0.00000000
     32.96907143	     -5.15839495	     -5.60648271	     -7.66576034	      0.98630215	      0.93354021	      0.45325996	     37.07636237	     -1.84730239	     -7.35917058	     37.85392548	     37.85392548	     -1.89236560	     -8.81970116	     -0.99567205	      7.84055877	     -6.21406949	     -9.52649636	     17.68306523	     17.68306523	     15.11010337	    -12.77813383	     -0.02352154	    -14.15041979	      6.74825150	      2.50811905	      2.78110946	    -14.10649381	     -8.79220043	     38.18936021	     46.74781975	      0.00000000	      0.00000000	     13.93539743	    -16.98011803	     -6.99547777	     83.35685022	     47.55399882	      0.00000000	      0.00000000
     32.98071429	     -5.18149073	     -5.60862122	     -7.75280103	      0.98684138	      0.93293717	      0.45395360	     36.40592636	     -1.61099391	     -7.98301797	     33.21136392	     33.21136392	     -1.74058238	     -5.92956624	     -0.99547016	      6.89584518	     -6.15395528	     -9.80492270	     17.06621516	     17.06621516	     15.32901602	    -12.41925855	     -0.59716758	    -14.16887619	      6.80926969	      2.40605101	      2.09880870	    -14.16931167	     -9.19833267	     34.59735932	     46.83561973	      0.00000000	      0.00000000	     14.30588374	    -17.09043380	     -7.77533900	     86.01662635	     47.70945389	      0.00000000	      0.00000000
     32.99235714	     -5.13680259	     -5.59655471	     -7.78993616	      0.98767560	      0.93221481	      0.45471698	     35.51645456	     -1.36013832	     -8.67364212	     28.60465420	     28.60465420	     -1.47323768	     -3.03482722	     -0.27937230	      5.88026744	     -6.06833083	    -10.04928231	     16.48632668	     16.48632668	     15.69770826	    -11.99886878	     -0.89911591	    -14.23222815	      6.87298219	      2.76872147	      0.38835098	    -14.48100499	     -9.26188661	     33.02171478	     46.87775735	      0.00000000	      0.00000000	     15.17107103	    -17.02963234	     -7.91721194	     87.99061416	     47.77116965	      0.00000000	      0.00000000
     33.00400000	     -5.09848457	     -5.53957081	     -7.76568427	      0.98884000	      0.93118693	      0.45555835	     34.54407711	     -1.12861047	     -9.43586790	     24.19717453	     24.19717453	     -1.15862498	     -0.33437208	      0.78920594	      4.85049264	     -5.93900169	    -10.29622899	     15.88265429	     15.88265429	     16.07304260	    -11.49120698	     -1.31674554	    -14.19528652	      6.90559296	      2.93678019	     -1.20137396	    -14.69188404	     -9.33990077	     31.45774703	     46.92515073	      0.00000000	      0.00000000	     15.80195495	    -17.12216278	     -7.93196549	     90.01150690	     47.82294558	      0.00000000	      0.00000000
     33.01564286	     -4.94432987	     -5.29565826	     -7.73504417	      0.99030080	      0.92993225	      0.45641704	     33.63133814	     -1.18975227	    -10.50791509	     20.54625130	     20.54625130	     -0.40017195	      2.78987532	      2.90094779	      3.63740049	     -5.60965463	    -10.76316400	     15.15608586	     15.15608586	     16.37014292	    -10.62980078	     -2.19091971	    -14.24157816	      6.64606912	      2.94786288	     -2.45510512	    -14.72848717	     -9.52608854	     29.29211042	     46.99972786	      0.00000000	      0.00000000	     16.12856521	    -17.51673597	     -7.84561899	     92.89452264	     47.89420129	      0.00000000	      0.00000000
     33.02728571	     -4.90110354	     -5.19226676	     -7.62612452	      0.99188486	      0.92844072	      0.45745263	     32.87171437	     -1.04598283	    -11.47292531	     17.52709313	     17.52709313	      1.30717246	      5.08223742	      8.12262870	      2.59160330	     -5.46338564	    -11.05053178	     14.52124557	     14.52124557	     16.40518204	    -10.06916858	     -3.57034677	    -14.08644600	      6.58073748	      2.26392431	     -3.00679595	    -14.62594007	    -10.03839393	     26.71619222	     47.09236654	      0.00000000	      0.00000000	     15.77577998	    -18.06420355	     -8.45459352	     95.73149337	     48.04245106	      0.00000000	      0.00000000
     33.03892857	     -4.74600155	     -4.99019141	     -7.55025225	      0.99392443	      0.92679819	      0.45865366	     31.93544489	     -0.92082304	    -12.25302426	     14.80667821	     14.80667821	      1.68609667	      6.51965919	      9.13830448	      1.36231484	     -5.16277051	    -11.25192629	     13.85555583	     13.85555583	     16.85833621	     -9.50384651	     -3.85817370	    -13.99376620	      6.42137278	      2.41790936	     -4.82298807	    -14.69012631	    -10.09814160	     25.93565618	     47.10579940	      0.00000000	      0.00000000	     16.33065737	    -18.10208415	     -8.57663161	     97.38925147	     48.09270463	      0.00000000	      0.00000000
     33.05057143	     -4.63194260	     -4.76161775	     -7.44573369	      0.99601484	      0.92493639	      0.45999185	     31.31645163	     -0.94756756	    -13.34303607	     13.18454549	     13.18454549	      2.87411366	      7.98428146	     12.10826356	      0.22145168	     -4.91118471	    -11.72426292	     13.25921832	     13.25921832	     17.20418500	     -8.52103854	     -4.75047812	    -13.87455164	      6.19593283	      2.23157320	     -6.53822311	    -14.63174150	    -10.32505890	     25.78454227	     47.07496517	      0.00000000	      0.00000000	     16.32581750	    -18.62001470	     -8.62498591	     99.87780069	     48.18924289	      0.00000000	      0.00000000
     33.06221429	     -4.52084068	     -4.55380655	     -7.32197556	      0.99831300	      0.92298978	      0.46147688	     30.61228555	     -0.88229845	    -14.05707549	     11.85222433	     11.85222433	      3.16595799	      8.54473924	     12.54958959	     -0.94647519	     -4.64351012	    -11.86032745	     12.64153862	     12.64153862	     17.67447234	     -7.89268592	     -4.98628471	    -13.67607201	      6.01115634	      2.31326557	     -8.26103888	    -14.56507106	    -10.34204028	     25.30830811	     47.07252716	      0.00000000	      0.00000000	     16.66687388	    -18.63064585	     -8.70965034	    101.34678080	     48.23474553	      0.00000000	      0.00000000
     33.07385714	     -4.44707268	     -4.36211097	     -7.18276934	      1.00071903	      0.92085134	      0.46314765	     30.09854460	     -0.88191341	    -14.81970174	     11.30472126	     11.30472126	      3.43271645	      8.95862827	     12.65721503	     -1.98791162	     -4.48263941	    -12.26972357	     12.22001012	     12.22001012	     18.22769819	     -6.85059639	     -5.39177071	    -13.45552458	      5.83309095	      2.16491223	    -10.09054371	    -14.45015947	    -10.40513935	     25.79285819	     47.01557527	      0.00000000	      0.00000000	     16.59314421	    -19.03960367	     -8.73407570	    103.29966980	     48.30029680	      0.00000000	      0.00000000
     33.08550000	     -4.51270169	     -4.20668349	     -6.96640268	      1.00303430	      0.91849691	      0.46486357	     29.77838212	     -0.86709687	    -15.21963724	     11.24093535	     11.24093535	      3.54711412	      8.69662686	     12.59862599	     -2.67909712	     -4.37968926	    -12.10760838	     12.13618020	     12.13618020	     18.74939497	     -6.68686646	     -5.58889444	    -12.98049846	      5.74245037	      1.81182653	    -11.42899917	    -14.31456388	    -10.42043133	     25.39176290	     47.01952818	      0.00000000	      0.00000000	     16.71389081	    -19.25782565	     -8.91865687	    103.67944860	     48.32194869	      0.00000000	      0.00000000
